<?xml version="1.0"?>
<svg xmlns="http://www.w3.org/2000/svg" height="512px" viewBox="0 0 480 480.00977" width="512px"><path d="m476.652344 81.488281-112-80c-.144532-.101562-.304688-.144531-.449219-.230469-.140625-.089843-.269531-.226562-.421875-.3125-.152344-.089843-.382812-.128906-.578125-.207031-.3125-.148437-.640625-.269531-.972656-.371093-.363281-.097657-.734375-.175782-1.105469-.230469-.335938-.0507815-.671875-.0781252-1.007812-.0859378-.371094 0-.742188.0234376-1.113282.0703128-.339844.042968-.675781.109375-1.007812.191406-.363282.09375-.71875.21875-1.0625.367188-.191406.082031-.402344.113281-.59375.210937-.191406.09375-.230469.175781-.359375.253906-.128907.082031-.289063.113281-.414063.199219l-115.5625 77.058594-115.558594-77.058594c-2.765624-1.84375-6.382812-1.785156-9.089843.144531l-112 80c-2.101563 1.503907-3.35156275 3.929688-3.35156275 6.511719v384c0 2.996094 1.67578175 5.742188 4.33984375 7.113281 2.664062 1.371094 5.871094 1.140625 8.308594-.601562l107.511718-76.796875 115.402344 76.933594c.109375.074218.238282.105468.351563.167968.109375.066406.199219.167969.3125.234375.238281.125.503906.183594.75.285157.261719.121093.527343.222656.800781.3125.402344.105468.816406.183593 1.230469.222656.257812 0 .511719.089844.800781.097656h.207031c.242188 0 .480469-.078125.722657-.105469.433593-.027343.867187-.089843 1.292968-.191406.304688-.089844.605469-.199219.898438-.328125.292968-.089844.582031-.195312.863281-.320312.121094-.070313.214844-.175782.335937-.246094.121094-.074219.222657-.082032.328126-.152344l115.382812-76.902344 107.511719 76.796875c2.441406 1.742188 5.648437 1.976563 8.316406.601563 2.664063-1.375 4.335937-4.121094 4.332031-7.121094v-384c0-2.582031-1.246094-5.007812-3.351562-6.511719zm-356.648438 302.511719c-1.664062 0-3.289062.519531-4.648437 1.488281l-99.351563 70.96875v-364.335937l104.160156-74.398438 111.839844 74.558594v364.800781l-107.558594-71.738281c-1.316406-.875-2.859374-1.34375-4.441406-1.34375zm128-291.71875 104-69.328125v364.800781l-104 69.296875zm216 364.175781-96-68.574219v-364.335937l96 68.574219zm0 0" fill="#FFFFFF"/><path d="m331.667969 72.890625c-2.664063-1.375-5.871094-1.144531-8.3125.597656l-56 40c-2.101563 1.503907-3.351563 3.929688-3.351563 6.511719v112c0 2.996094 1.675782 5.742188 4.339844 7.113281 2.664062 1.371094 5.871094 1.140625 8.308594-.601562l56-40c2.105468-1.5 3.351562-3.925781 3.351562-6.511719v-112c0-2.996094-1.671875-5.738281-4.335937-7.109375zm-11.664063 114.992187-40 28.574219v-92.335937l40-28.574219zm0 0" fill="#FFFFFF"/><path d="m323.355469 225.488281-56 40c-3.59375 2.566407-4.429688 7.5625-1.863281 11.160157 2.566406 3.597656 7.5625 4.429687 11.160156 1.863281l56-40c3.597656-2.566407 4.429687-7.5625 1.863281-11.160157-2.566406-3.59375-7.5625-4.429687-11.160156-1.863281zm0 0" fill="#FFFFFF"/><path d="m323.355469 257.488281-56 40c-3.59375 2.566407-4.429688 7.5625-1.863281 11.160157 2.566406 3.597656 7.5625 4.429687 11.160156 1.863281l56-40c3.597656-2.566407 4.429687-7.5625 1.863281-11.160157-2.566406-3.59375-7.5625-4.429687-11.160156-1.863281zm0 0" fill="#FFFFFF"/><path d="m323.355469 289.488281-56 40c-3.59375 2.566407-4.429688 7.5625-1.863281 11.160157 2.566406 3.597656 7.5625 4.429687 11.160156 1.863281l56-40c3.597656-2.566407 4.429687-7.5625 1.863281-11.160157-2.566406-3.59375-7.5625-4.429687-11.160156-1.863281zm0 0" fill="#FFFFFF"/><path d="m120.003906 56c4.417969 0 8-3.582031 8-8v-8c0-4.417969-3.582031-8-8-8-4.417968 0-8 3.582031-8 8v8c0 4.417969 3.582032 8 8 8zm0 0" fill="#FFFFFF"/><path d="m120.003906 96c4.417969 0 8-3.582031 8-8v-8c0-4.417969-3.582031-8-8-8-4.417968 0-8 3.582031-8 8v8c0 4.417969 3.582032 8 8 8zm0 0" fill="#FFFFFF"/><path d="m120.003906 136c4.417969 0 8-3.582031 8-8v-8c0-4.417969-3.582031-8-8-8-4.417968 0-8 3.582031-8 8v8c0 4.417969 3.582032 8 8 8zm0 0" fill="#FFFFFF"/><path d="m120.003906 176c4.417969 0 8-3.582031 8-8v-8c0-4.417969-3.582031-8-8-8-4.417968 0-8 3.582031-8 8v8c0 4.417969 3.582032 8 8 8zm0 0" fill="#FFFFFF"/><path d="m120.003906 216c4.417969 0 8-3.582031 8-8v-8c0-4.417969-3.582031-8-8-8-4.417968 0-8 3.582031-8 8v8c0 4.417969 3.582032 8 8 8zm0 0" fill="#FFFFFF"/><path d="m120.003906 272c-4.417968 0-8 3.582031-8 8v8c0 4.417969 3.582032 8 8 8 4.417969 0 8-3.582031 8-8v-8c0-4.417969-3.582031-8-8-8zm0 0" fill="#FFFFFF"/><path d="m120.003906 312c-4.417968 0-8 3.582031-8 8v8c0 4.417969 3.582032 8 8 8 4.417969 0 8-3.582031 8-8v-8c0-4.417969-3.582031-8-8-8zm0 0" fill="#FFFFFF"/><path d="m120.003906 352c-4.417968 0-8 3.582031-8 8v8c0 4.417969 3.582032 8 8 8 4.417969 0 8-3.582031 8-8v-8c0-4.417969-3.582031-8-8-8zm0 0" fill="#FFFFFF"/><path d="m184.003906 96c-16.09375-.019531-29.6875 11.941406-31.71875 27.90625s8.132813 30.945312 23.71875 34.957031v25.136719c0 4.417969 3.582032 8 8 8 4.417969 0 8-3.582031 8-8v-25.136719c15.585938-4.011719 25.753906-18.992187 23.722656-34.957031s-15.628906-27.925781-31.722656-27.90625zm0 48c-8.835937 0-16-7.164062-16-16s7.164063-16 16-16c8.835938 0 16 7.164062 16 16s-7.164062 16-16 16zm0 0" fill="#FFFFFF"/><path d="m64.003906 288c-16.09375-.019531-29.6875 11.941406-31.71875 27.90625s8.132813 30.945312 23.71875 34.957031v25.136719c0 4.417969 3.582032 8 8 8 4.417969 0 8-3.582031 8-8v-25.136719c15.585938-4.011719 25.753906-18.992187 23.722656-34.957031s-15.628906-27.925781-31.722656-27.90625zm0 48c-8.835937 0-16-7.164062-16-16s7.164063-16 16-16c8.835938 0 16 7.164062 16 16s-7.164062 16-16 16zm0 0" fill="#FFFFFF"/><path d="m177.347656 211.5625-13.621094 20.4375h-83.722656c-2.671875 0-5.171875 1.335938-6.65625 3.5625l-16 24c-2.449218 3.675781-1.457031 8.640625 2.21875 11.09375 3.675782 2.453125 8.640625 1.460938 11.09375-2.214844l13.625-20.441406h83.71875c2.675782 0 5.171875-1.335938 6.65625-3.558594l16-24c2.453125-3.675781 1.460938-8.644531-2.214844-11.097656-3.675781-2.449219-8.644531-1.457031-11.097656 2.21875zm0 0" fill="#FFFFFF"/><path d="m416.003906 280c2.273438 0 4.4375-.964844 5.953125-2.65625 4.351563-4.847656 26.046875-29.816406 26.046875-45.34375 0-17.671875-14.324218-32-32-32-17.671875 0-32 14.328125-32 32 0 15.527344 21.695313 40.496094 26.050782 45.34375 1.515624 1.691406 3.679687 2.65625 5.949218 2.65625zm0-64c8.835938 0 16 7.164062 16 16 0 5.097656-7.511718 17-16 27.609375-8.496094-10.65625-16-22.648437-16-27.609375 0-8.835938 7.164063-16 16-16zm0 0" fill="#FFFFFF"/><path d="m396.445312 297.34375c-3.675781-2.449219-8.644531-1.457031-11.097656 2.21875-2.449218 3.675781-1.457031 8.640625 2.21875 11.09375l48 32c3.675782 2.453125 8.640625 1.460938 11.09375-2.214844 2.453125-3.675781 1.460938-8.644531-2.214844-11.097656zm0 0" fill="#FFFFFF"/><path d="m396.445312 329.34375c-3.675781-2.449219-8.644531-1.457031-11.097656 2.21875-2.449218 3.675781-1.457031 8.640625 2.21875 11.09375l48 32c3.675782 2.453125 8.640625 1.460938 11.09375-2.214844 2.453125-3.675781 1.460938-8.644531-2.214844-11.097656zm0 0" fill="#FFFFFF"/><path d="m396.445312 361.34375c-3.675781-2.449219-8.644531-1.457031-11.097656 2.21875-2.449218 3.675781-1.457031 8.640625 2.21875 11.09375l48 32c3.675782 2.453125 8.640625 1.460938 11.09375-2.214844 2.453125-3.675781 1.460938-8.644531-2.214844-11.097656zm0 0" fill="#FFFFFF"/></svg>
