<?xml version="1.0" encoding="iso-8859-1"?>
<!-- Generator: Adobe Illustrator 16.0.0, SVG Export Plug-In . SVG Version: 6.00 Build 0)  -->
<!DOCTYPE svg PUBLIC "-//W3C//DTD SVG 1.1//EN" "http://www.w3.org/Graphics/SVG/1.1/DTD/svg11.dtd">
<svg xmlns="http://www.w3.org/2000/svg" xmlns:xlink="http://www.w3.org/1999/xlink" version="1.1" id="Capa_1" x="0px" y="0px" width="512px" height="512px" viewBox="0 0 612 612" style="enable-background:new 0 0 612 612;" xml:space="preserve">
<g>
	<g>
		<path d="M306,517.846c-73.134,0-137.606-37.072-175.691-93.424H75.676C118.681,507.866,205.679,564.923,306,564.923    c135.063,0,245.977-103.428,257.864-235.385H612l-70.615-94.153l-70.615,94.153h45.782    C504.853,435.462,415.054,517.846,306,517.846z" fill="#FFFFFF"/>
		<path d="M306,47.077c-126.919,0-232.513,91.329-254.663,211.846H0l70.615,94.154l70.616-94.154H99.403    C120.799,164.581,205.185,94.154,306,94.154c63.719,0,120.847,28.128,159.685,72.64l9.086-2.33h48.065    C476.606,93.777,396.765,47.077,306,47.077z" fill="#FFFFFF"/>
	</g>
</g>
<g>
</g>
<g>
</g>
<g>
</g>
<g>
</g>
<g>
</g>
<g>
</g>
<g>
</g>
<g>
</g>
<g>
</g>
<g>
</g>
<g>
</g>
<g>
</g>
<g>
</g>
<g>
</g>
<g>
</g>
</svg>
